<?xml version="1.0" encoding="UTF-8"?>
<svg id="Layer_1" data-name="Layer 1" xmlns="http://www.w3.org/2000/svg" viewBox="0 0 1274.93 595.28">
  <defs>
    <style>
      .cls-1 {
        fill: none;
        stroke: #231f20;
        stroke-miterlimit: 10;
      }

      .cls-2 {
        fill: #322012;
      }

      .cls-3 {
        fill: #4e7f3b;
      }

      .cls-4 {
        fill: #231f20;
      }

      .cls-5 {
        fill: #77431b;
      }

      .cls-6 {
        fill: #6cc0d5;
      }

      .cls-7 {
        fill: #fff;
      }

      .cls-8 {
        fill: #f69c49;
      }
    </style>
  </defs>
  <rect class="cls-5" y="309.57" width="1274.93" height="285.71"/>
  <rect class="cls-6" width="1274.93" height="309.57"/>
  <g>
    <ellipse class="cls-7" cx="136.08" cy="52.34" rx="35.41" ry="31.43"/>
    <circle class="cls-7" cx="153.2" cy="31.23" r="25.38"/>
    <circle class="cls-7" cx="100.67" cy="39.06" r="22.96"/>
    <ellipse class="cls-7" cx="115.76" cy="79.33" rx="22.03" ry="17.31"/>
    <circle class="cls-7" cx="166.17" cy="79.33" r="22.72"/>
    <circle class="cls-7" cx="188.89" cy="48.36" r="22.72"/>
    <circle class="cls-7" cx="137.79" cy="96.64" r="22.72"/>
    <circle class="cls-7" cx="84.93" cy="71.08" r="22.72"/>
  </g>
  <g>
    <ellipse class="cls-7" cx="465.83" cy="52.93" rx="35.41" ry="31.43"/>
    <circle class="cls-7" cx="482.95" cy="31.82" r="25.38"/>
    <circle class="cls-7" cx="430.42" cy="39.65" r="22.96"/>
    <ellipse class="cls-7" cx="445.51" cy="79.92" rx="22.03" ry="17.31"/>
    <circle class="cls-7" cx="495.92" cy="79.92" r="22.72"/>
    <circle class="cls-7" cx="518.64" cy="48.95" r="22.72"/>
    <circle class="cls-7" cx="467.55" cy="97.23" r="22.72"/>
    <circle class="cls-7" cx="414.68" cy="71.67" r="22.72"/>
  </g>
  <g>
    <ellipse class="cls-7" cx="806.35" cy="49.34" rx="35.41" ry="31.43"/>
    <circle class="cls-7" cx="823.46" cy="28.23" r="25.38"/>
    <circle class="cls-7" cx="770.94" cy="36.05" r="22.96"/>
    <ellipse class="cls-7" cx="786.03" cy="76.33" rx="22.03" ry="17.31"/>
    <circle class="cls-7" cx="836.43" cy="76.33" r="22.72"/>
    <circle class="cls-7" cx="859.16" cy="45.36" r="22.72"/>
    <circle class="cls-7" cx="808.06" cy="93.64" r="22.72"/>
    <circle class="cls-7" cx="755.2" cy="68.08" r="22.72"/>
  </g>
  <g>
    <polyline class="cls-8" points="0 309.57 105.23 154.78 202.47 309.57"/>
    <line class="cls-4" x1="80.05" y1="191.82" x2="128.68" y2="192.11"/>
    <line class="cls-4" x1="67.2" y1="213.41" x2="142.34" y2="213.86"/>
    <line class="cls-4" x1="45.85" y1="242.28" x2="160.62" y2="242.96"/>
    <line class="cls-4" x1="21.54" y1="278.53" x2="183.57" y2="279.5"/>
    <path class="cls-4" d="M4.58,302.83l193.75.17-193.75-.17Z"/>
  </g>
  <g>
    <polyline class="cls-8" points="214.1 309.57 319.33 154.78 416.57 309.57"/>
    <line class="cls-4" x1="294.15" y1="191.82" x2="342.78" y2="192.11"/>
    <line class="cls-4" x1="281.3" y1="213.41" x2="356.44" y2="213.86"/>
    <line class="cls-4" x1="259.95" y1="242.28" x2="374.72" y2="242.96"/>
    <line class="cls-4" x1="235.64" y1="278.53" x2="397.68" y2="279.5"/>
    <path class="cls-4" d="M218.68,302.83l193.75.17-193.75-.17Z"/>
  </g>
  <g>
    <polyline class="cls-8" points="429.02 309.57 534.25 154.78 631.48 309.57"/>
    <line class="cls-4" x1="509.07" y1="191.82" x2="557.69" y2="192.11"/>
    <line class="cls-4" x1="496.21" y1="213.41" x2="571.36" y2="213.86"/>
    <line class="cls-4" x1="474.87" y1="242.28" x2="589.64" y2="242.96"/>
    <line class="cls-4" x1="450.55" y1="278.53" x2="612.59" y2="279.5"/>
    <path class="cls-4" d="M433.6,302.83l193.75.17-193.75-.17Z"/>
  </g>
  <g>
    <polyline class="cls-8" points="638.14 309.57 743.37 154.78 840.61 309.57"/>
    <line class="cls-4" x1="718.19" y1="191.82" x2="766.82" y2="192.11"/>
    <line class="cls-4" x1="705.34" y1="213.41" x2="780.48" y2="213.86"/>
    <line class="cls-4" x1="683.99" y1="242.28" x2="798.77" y2="242.96"/>
    <line class="cls-4" x1="659.68" y1="278.53" x2="821.72" y2="279.5"/>
    <path class="cls-4" d="M642.73,302.83l193.75.17-193.75-.17Z"/>
  </g>
  <path class="cls-2" d="M29.9,352.77c5.45-4.05,12.46-3.98,18.92-3.2,7.98.97,15.91,2.93,23.89.87,3.11-.8,1.79-5.63-1.33-4.82-7.85,2.03-15.91-.37-23.76-1.18-6.9-.71-14.48-.27-20.24,4.01-1.08.8-1.63,2.16-.9,3.42.62,1.07,2.33,1.71,3.42.9h0Z"/>
  <path class="cls-2" d="M96.92,548.46c4.29-5.41,10.6-8.45,17.5-8.45,7.72,0,15.68,2.5,23.15-.51,1.25-.51,2.13-1.67,1.75-3.08-.33-1.19-1.82-2.25-3.08-1.75-7.55,3.05-15.76-.06-23.57.38-7.47.42-14.62,3.98-19.29,9.86-.84,1.06-1.03,2.5,0,3.54.87.87,2.69,1.06,3.54,0h0Z"/>
  <path class="cls-2" d="M251.69,422.23c4.15-.67,8.42-.32,12.59,0,4.41.33,8.81.61,13.23.79,8.78.37,17.58.41,26.36.14,5.01-.16,10.01-.42,15.01-.78,1.35-.1,2.5-1.08,2.5-2.5,0-1.28-1.15-2.6-2.5-2.5-17.86,1.28-35.8,1.25-53.65-.09-4.99-.38-9.91-.68-14.87.12-1.33.21-2.08,1.88-1.75,3.08.39,1.42,1.74,1.96,3.08,1.75h0Z"/>
  <path class="cls-2" d="M511.78,362.5c7.21-3.82,15.45-5.26,23.55-4.38,2,.22,3.99.64,5.93,1.18,2.17.6,4.25,1.53,6.49,1.87,2.39.36,4.52-.17,6.66-1.23,1.82-.9,3.5-1.91,5.46-2.5,4.37-1.32,8.94-1.1,13.2.48,1.27.47,2.74-.52,3.08-1.75.38-1.4-.48-2.6-1.75-3.08-4.23-1.57-8.8-1.87-13.23-1.1-2.14.37-4.19,1.07-6.15,1.99-1.75.81-3.47,2.23-5.46,2.33-2.21.12-4.47-1.12-6.56-1.72s-4.3-1.03-6.5-1.32c-4.39-.58-8.77-.48-13.14.19-4.93.76-9.69,2.4-14.09,4.73-2.84,1.51-.32,5.82,2.52,4.32h0Z"/>
  <path class="cls-2" d="M641.88,561.51c3.04-2.37,6.24-4.89,9.94-6.13,3.93-1.31,7.97-.77,11.96-.05,4.29.77,8.58,1.58,12.94,1.03,4.06-.51,7.9-1.83,11.77-3.09,4.2-1.37,8.42-2.61,12.88-2.18,1.35.13,2.5-1.24,2.5-2.5,0-1.46-1.15-2.37-2.5-2.5-8.53-.81-16.11,3.81-24.29,5.21-8.73,1.49-17.26-3.51-25.98-.92-4.83,1.43-8.84,4.55-12.75,7.61-1.06.83-.87,2.66,0,3.54,1.05,1.05,2.47.83,3.54,0h0Z"/>
  <path class="cls-2" d="M686.28,436.06c7.12-3.07,15.21-6.51,23.15-5.38,3.86.55,7.01,2.5,10.39,4.29,3.73,1.98,7.49,3,11.73,2.97s8.94-.9,13.22.54c3.06,1.03,4.37-3.8,1.33-4.82-4.08-1.37-8.35-.96-12.57-.78-2.02.09-4.1.16-6.09-.25s-3.59-1.17-5.29-2.08c-3.75-2.01-7.35-4.1-11.63-4.73s-8.6-.2-12.8.83c-4.82,1.19-9.42,3.12-13.97,5.08-1.24.54-1.52,2.36-.9,3.42.75,1.28,2.18,1.43,3.42.9h0Z"/>
  <path class="cls-2" d="M751.01,353.55c2.22-1.96,5.54-1.44,8.17-.81,3.77.91,7.39,2.33,11.18,3.19,8.3,1.89,16.91,2.32,25.35,1.21,1.34-.18,2.5-1.02,2.5-2.5,0-1.21-1.15-2.68-2.5-2.5-8.78,1.15-17.71.67-26.28-1.59-7-1.84-15.57-6.2-21.97-.54-2.41,2.14,1.13,5.66,3.54,3.54h0Z"/>
  <path class="cls-2" d="M462.78,478.6c9.44-2.82,19.36-1.99,29.04-1.27,10.21.76,20.43,1.05,30.67.61,5.85-.25,11.69-.72,17.51-1.38,1.34-.15,2.5-1.04,2.5-2.5,0-1.23-1.15-2.65-2.5-2.5-10.41,1.19-20.88,1.73-31.36,1.58s-20.28-1.49-30.44-1.51c-5.64-.01-11.32.53-16.74,2.15-3.08.92-1.77,5.75,1.33,4.82h0Z"/>
  <path class="cls-2" d="M312.39,350.37c.71-2.15,3.18-3.29,5.57-3.44,3.4-.22,6.26.96,9.28,2.57,3.55,1.9,7.09,4.12,11.09,4.94,4.2.87,8.41.27,12.59-.36s8.7-1.33,12.86.35c1.25.51,2.75-.55,3.08-1.75.39-1.43-.49-2.57-1.75-3.08-4.25-1.71-8.83-1.31-13.25-.68-4.05.57-8.33,1.54-12.4.65s-7.73-3.49-11.53-5.34-7.36-2.73-11.41-2.14-7.62,2.94-8.94,6.94c-1.01,3.06,3.81,4.37,4.82,1.33h0Z"/>
  <path class="cls-2" d="M96.47,442.63c2.58-2.14,5.62-4.52,9.05-4.98s6.6,1.9,9.72,3.2c7.44,3.1,15.67,1.57,23.29,0,1.32-.27,2.09-1.84,1.75-3.08-.38-1.37-1.75-2.02-3.08-1.75-3.84.79-7.7,1.56-11.64,1.62s-7.43-.83-10.95-2.62-7.29-3.06-11.41-2c-3.91,1.01-7.22,3.53-10.27,6.05-1.04.86-.89,2.64,0,3.54,1.03,1.03,2.49.86,3.54,0h0Z"/>
  <path class="cls-2" d="M299.09,550.99c6.58-4.35,14.39-5.69,22.07-4.06,4.29.91,8.52,2.07,12.94,1.59s8.37-1.96,12.54-3.12c4.04-1.13,8.74-2.03,12.71-.14,1.22.58,2.7.34,3.42-.9.64-1.09.33-2.84-.9-3.42-4.13-1.97-8.55-2.03-12.98-1.21s-8.46,2.53-12.78,3.44c-2.16.45-4.35.61-6.55.37s-4.42-.85-6.61-1.33c-4.37-.96-8.68-1.26-13.11-.61-4.72.68-9.29,2.45-13.27,5.08-2.67,1.77-.17,6.1,2.52,4.32h0Z"/>
  <path class="cls-2" d="M472.24,547.81c7.23-2.97,14.87-5.74,22.78-5.82,3.81-.04,7.43.68,11.01,1.96s6.97,2.89,10.58,3.99c3.98,1.21,8.19,1.67,12.22.42,3.06-.95,1.76-5.78-1.33-4.82-6.87,2.13-13.86-2.16-20.14-4.4-7.7-2.75-15.7-2.55-23.56-.57-4.41,1.11-8.68,2.7-12.88,4.43-1.25.51-2.13,1.66-1.75,3.08.32,1.18,1.82,2.26,3.08,1.75h0Z"/>
  <path class="cls-2" d="M252.11,487.77c11.34-2.76,23.07-5.49,34.82-4.22,5.54.6,10.63,2.42,15.49,5.08,2.65,1.45,5.39,2.92,8.4,3.41,2.71.44,5.43.18,8.1-.45,5.35-1.25,11-4.52,16.63-3.42,1.32.26,2.7-.37,3.08-1.75.34-1.23-.41-2.82-1.75-3.08-5.69-1.11-10.94.94-16.3,2.59-2.41.74-4.86,1.4-7.4,1.33-2.72-.07-5.14-1.28-7.49-2.55-5.37-2.91-10.76-5.09-16.85-5.93s-11.83-.63-17.72.12c-6.87.88-13.62,2.4-20.34,4.04-3.12.76-1.8,5.58,1.33,4.82h0Z"/>
  <path class="cls-2" d="M157.71,366.59c8.67-3.48,17.68-6.04,26.89-7.6,4.03-.68,8.85-1.72,12.76-.02,1.9.83,3.51,2.23,5.33,3.21s3.96,1.74,6.08,2.11c4.95.86,9.91.25,14.82-.59,1.33-.23,2.08-1.87,1.75-3.08-.39-1.41-1.74-1.98-3.08-1.75-3.96.68-8.16,1.28-12.16.59-2-.34-3.88-.98-5.63-2.03-1.92-1.15-3.67-2.48-5.78-3.29-4.34-1.66-9.12-.97-13.58-.28s-9.19,1.67-13.7,2.87c-5.11,1.37-10.13,3.05-15.04,5.02-1.25.5-2.13,1.67-1.75,3.08.33,1.19,1.82,2.25,3.08,1.75h0Z"/>
  <path class="cls-2" d="M420.3,417.97c11-8.49,26.71-9.94,38.95-3.23,2.82,1.55,5.35-2.77,2.52-4.32-13.67-7.49-31.6-6.33-44,3.23-1.07.82-1.64,2.15-.9,3.42.61,1.05,2.34,1.73,3.42.9h0Z"/>
  <path class="cls-2" d="M610.72,485.75c9.92-4.75,22-5.06,32.13-.72,1.24.53,2.68.37,3.42-.9.62-1.05.35-2.89-.9-3.42-11.91-5.11-25.47-4.89-37.17.72-1.22.58-1.54,2.32-.9,3.42.73,1.24,2.2,1.48,3.42.9h0Z"/>
  <path class="cls-2" d="M639.29,371.53c5.84-.61,11.67.03,17.22,1.97s10.7,6.65,16.6,4.74c3.05-.99,1.74-5.82-1.33-4.82-2.52.82-5-.61-7.19-1.74-2.58-1.34-5.22-2.53-8-3.41-5.56-1.75-11.51-2.34-17.3-1.73-1.34.14-2.5,1.05-2.5,2.5,0,1.24,1.15,2.64,2.5,2.5h0Z"/>
  <path class="cls-2" d="M759.65,530.49c7.34-5.36,17.47-6.24,25.51-1.88,2.83,1.53,5.36-2.78,2.52-4.32-9.5-5.15-21.78-4.53-30.56,1.88-1.09.79-1.63,2.17-.9,3.42.63,1.07,2.32,1.7,3.42.9h0Z"/>
  <path class="cls-2" d="M53.28,493.78c6.83-3.36,14.21-5.63,21.75-6.7,8.08-1.14,16.32-.74,24.45-.45,4.68.17,9.37.34,14.05.51,3.22.12,3.21-4.88,0-5-16.63-.61-33.76-2.41-49.98,2.31-4.4,1.28-8.68,2.98-12.79,5-1.21.6-1.54,2.31-.9,3.42.72,1.24,2.2,1.5,3.42.9h0Z"/>
  <path class="cls-2" d="M208.05,568.4c3.36-2.89,8.61-1.86,12.47-.73,5.68,1.67,11.31,3.95,17.3,2.46,3.12-.77,1.8-5.6-1.33-4.82-5.74,1.42-11.38-1.82-16.85-3.04s-10.86-1.07-15.12,2.59c-1.03.88-.9,2.63,0,3.54,1.02,1.02,2.51.88,3.54,0h0Z"/>
  <g>
    <g>
      <ellipse class="cls-3" cx="73.59" cy="400.51" rx="19.05" ry="81.62"/>
      <ellipse class="cls-3" cx="106.52" cy="393.74" rx="20.32" ry="10.82"/>
      <ellipse class="cls-3" cx="122.67" cy="363.11" rx="8.52" ry="37.26"/>
      <ellipse class="cls-3" cx="44.46" cy="425.22" rx="26" ry="12.91"/>
      <ellipse class="cls-3" cx="26.67" cy="392.78" rx="13.78" ry="40.78"/>
    </g>
    <path class="cls-1" d="M23.4,364.32l-1.26,7.78c.24-2.81,1.02-4.98,1.26-7.78Z"/>
    <path class="cls-1" d="M34.32,386.44c-.45-3.66-.54-7.37-.26-11.05"/>
    <path class="cls-1" d="M21.7,390.93v-12.96"/>
    <path class="cls-1" d="M32.33,407.16c-.2-3.03-.03-6.09.52-9.07"/>
    <path class="cls-1" d="M44.4,428.52c.67-2.75.87-5.61.6-8.43"/>
    <path class="cls-1" d="M63.62,427.29l-1.75-4.61"/>
    <path class="cls-1" d="M73.52,408.41c1.36-2.06,3.14-3.83,5.21-5.17"/>
    <path class="cls-1" d="M69.56,395.55l-3.89-3.89"/>
    <path class="cls-1" d="M70.01,381.61c1.21-1.4,2.63-2.62,4.2-3.6"/>
    <path class="cls-1" d="M68.19,369.06l-3.58-3.55"/>
    <path class="cls-1" d="M83.91,365.01v-5.18"/>
    <path class="cls-1" d="M68.37,350.75l-.65-2.59"/>
    <path class="cls-1" d="M72.67,339.66l2-5.81"/>
    <path class="cls-1" d="M82.65,422.05l2.49-6.52"/>
    <path class="cls-1" d="M74.23,438.18c-2.09-1.7-3.34-4.38-3.3-7.07"/>
    <path class="cls-1" d="M83.42,445.4l-1.38,5.81"/>
    <path class="cls-1" d="M69.95,452.95c1.59,2.55,2.97,5.23,4.13,8.01"/>
    <path class="cls-1" d="M99.99,393.64c-1.06-1.03-1.65-2.52-1.59-4"/>
    <path class="cls-1" d="M114.25,399.28l3.38-5.09"/>
    <path class="cls-1" d="M122.15,380.56c-1.12-1.45-1.6-3.37-1.29-5.17"/>
    <path class="cls-1" d="M123.43,361.81c1.7.08,3.41-.7,4.47-2.04"/>
    <path class="cls-1" d="M121.48,348.17l-2.53-4.57"/>
    <path class="cls-3" d="M122.79,334.55l.65-1.94"/>
    <path class="cls-1" d="M22.99,408.43v4.54"/>
    <path class="cls-1" d="M32.06,423.33c-.14,1.75.08,3.52.65,5.18"/>
  </g>
  <g>
    <g>
      <ellipse class="cls-3" cx="726.34" cy="502.29" rx="18.04" ry="77.3"/>
      <ellipse class="cls-3" cx="757.52" cy="495.88" rx="19.24" ry="10.24"/>
      <ellipse class="cls-3" cx="772.82" cy="466.87" rx="8.07" ry="35.29"/>
      <ellipse class="cls-3" cx="698.75" cy="525.7" rx="24.62" ry="12.23"/>
      <ellipse class="cls-3" cx="681.91" cy="494.97" rx="13.05" ry="38.62"/>
    </g>
    <path class="cls-1" d="M678.81,468.02l-1.19,7.37c.23-2.66.96-4.71,1.19-7.37Z"/>
    <path class="cls-1" d="M689.16,488.96c-.43-3.47-.51-6.98-.25-10.47"/>
    <path class="cls-1" d="M677.2,493.22v-12.27"/>
    <path class="cls-1" d="M687.27,508.58c-.19-2.87-.02-5.76.49-8.59"/>
    <path class="cls-1" d="M698.7,528.82c.63-2.6.83-5.31.57-7.98"/>
    <path class="cls-1" d="M716.9,527.65l-1.66-4.37"/>
    <path class="cls-1" d="M726.27,509.77c1.28-1.95,2.98-3.62,4.93-4.89"/>
    <path class="cls-1" d="M722.53,497.59l-3.68-3.68"/>
    <path class="cls-1" d="M722.95,484.39c1.15-1.33,2.49-2.48,3.98-3.41"/>
    <path class="cls-1" d="M721.23,472.51l-3.39-3.36"/>
    <path class="cls-1" d="M736.11,468.67v-4.91"/>
    <path class="cls-1" d="M721.4,455.17l-.62-2.45"/>
    <path class="cls-1" d="M725.47,444.67l1.9-5.5"/>
    <path class="cls-1" d="M734.92,522.69c.79-2.06,1.57-4.12,2.36-6.17"/>
    <path class="cls-1" d="M726.95,537.96c-1.98-1.61-3.16-4.15-3.13-6.7"/>
    <path class="cls-1" d="M735.65,544.8l-1.31,5.5"/>
    <path class="cls-1" d="M722.9,551.95c1.5,2.42,2.81,4.96,3.91,7.58"/>
    <path class="cls-1" d="M751.34,495.79c-1-.98-1.57-2.39-1.51-3.79"/>
    <path class="cls-1" d="M764.85,501.13l3.2-4.82"/>
    <path class="cls-1" d="M772.33,483.39c-1.06-1.37-1.52-3.19-1.22-4.9"/>
    <path class="cls-1" d="M773.54,465.64c1.61.07,3.23-.67,4.23-1.93"/>
    <path class="cls-1" d="M771.69,452.72l-2.39-4.33"/>
    <path class="cls-3" d="M772.93,439.83l.61-1.84"/>
    <path class="cls-1" d="M678.43,509.79v4.3"/>
    <path class="cls-1" d="M687.02,523.9c-.13,1.66.08,3.34.61,4.91"/>
  </g>
  <g>
    <g>
      <ellipse class="cls-3" cx="430.61" cy="272.86" rx="15.59" ry="66.81"/>
      <ellipse class="cls-3" cx="457.57" cy="267.32" rx="16.63" ry="8.85"/>
      <ellipse class="cls-3" cx="470.79" cy="242.25" rx="6.97" ry="30.5"/>
      <ellipse class="cls-3" cx="406.77" cy="293.1" rx="21.28" ry="10.57"/>
      <ellipse class="cls-3" cx="392.21" cy="266.54" rx="11.28" ry="33.38"/>
    </g>
    <path class="cls-1" d="M389.54,243.25l-1.03,6.37c.19-2.3.83-4.07,1.03-6.37Z"/>
    <path class="cls-1" d="M398.48,261.35c-.37-3-.44-6.03-.22-9.05"/>
    <path class="cls-1" d="M388.14,265.03v-10.61"/>
    <path class="cls-1" d="M396.84,278.31c-.16-2.48-.02-4.98.42-7.43"/>
    <path class="cls-1" d="M406.73,295.8c.55-2.25.72-4.59.49-6.9"/>
    <path class="cls-1" d="M422.46,294.79l-1.43-3.77"/>
    <path class="cls-1" d="M430.56,279.34c1.11-1.68,2.57-3.13,4.26-4.23"/>
    <path class="cls-1" d="M427.32,268.81l-3.18-3.18"/>
    <path class="cls-1" d="M427.69,257.4c.99-1.15,2.15-2.14,3.44-2.95"/>
    <path class="cls-1" d="M426.2,247.13l-2.93-2.9"/>
    <path class="cls-1" d="M439.06,243.81v-4.24"/>
    <path class="cls-1" d="M426.35,232.14l-.53-2.12"/>
    <path class="cls-1" d="M429.86,223.06l1.64-4.76"/>
    <path class="cls-1" d="M438.03,290.5l2.04-5.34"/>
    <path class="cls-1" d="M431.14,303.7c-1.71-1.39-2.73-3.58-2.7-5.79"/>
    <path class="cls-1" d="M438.66,309.61l-1.13,4.76"/>
    <path class="cls-1" d="M427.64,315.79c1.3,2.09,2.43,4.28,3.38,6.56"/>
    <path class="cls-1" d="M452.23,267.25c-.87-.84-1.35-2.06-1.31-3.27"/>
    <path class="cls-1" d="M463.9,271.86l2.76-4.17"/>
    <path class="cls-1" d="M470.36,256.53c-.92-1.18-1.31-2.76-1.05-4.24"/>
    <path class="cls-1" d="M471.42,241.19c1.39.06,2.8-.58,3.66-1.67"/>
    <path class="cls-1" d="M469.82,230.02l-2.07-3.74"/>
    <path class="cls-3" d="M470.89,218.88l.53-1.59"/>
    <path class="cls-1" d="M389.2,279.35v3.71"/>
    <path class="cls-1" d="M396.63,291.55c-.11,1.43.07,2.88.53,4.24"/>
  </g>
  <g>
    <ellipse class="cls-7" cx="1136.47" cy="49.93" rx="35.41" ry="31.43"/>
    <circle class="cls-7" cx="1153.58" cy="28.82" r="25.38"/>
    <circle class="cls-7" cx="1101.06" cy="36.64" r="22.96"/>
    <ellipse class="cls-7" cx="1116.15" cy="76.92" rx="22.03" ry="17.31"/>
    <circle class="cls-7" cx="1166.55" cy="76.92" r="22.72"/>
    <circle class="cls-7" cx="1189.28" cy="45.95" r="22.72"/>
    <circle class="cls-7" cx="1138.18" cy="94.23" r="22.72"/>
    <circle class="cls-7" cx="1085.32" cy="68.67" r="22.72"/>
  </g>
  <g>
    <polyline class="cls-8" points="853.15 309.57 958.38 154.78 1055.62 309.57"/>
    <line class="cls-4" x1="933.2" y1="191.82" x2="981.83" y2="192.11"/>
    <line class="cls-4" x1="920.35" y1="213.41" x2="995.49" y2="213.86"/>
    <line class="cls-4" x1="899" y1="242.28" x2="1013.77" y2="242.96"/>
    <line class="cls-4" x1="874.69" y1="278.53" x2="1036.72" y2="279.5"/>
    <path class="cls-4" d="M857.73,302.83l193.75.17-193.75-.17Z"/>
  </g>
  <g>
    <polyline class="cls-8" points="1068.46 309.57 1173.69 154.78 1270.92 309.57"/>
    <line class="cls-4" x1="1148.51" y1="191.82" x2="1197.14" y2="192.11"/>
    <line class="cls-4" x1="1135.66" y1="213.41" x2="1210.8" y2="213.86"/>
    <line class="cls-4" x1="1114.31" y1="242.28" x2="1229.08" y2="242.96"/>
    <line class="cls-4" x1="1090" y1="278.53" x2="1252.03" y2="279.5"/>
    <path class="cls-4" d="M1073.04,302.83l193.75.17-193.75-.17Z"/>
  </g>
  <g>
    <g>
      <ellipse class="cls-3" cx="1112.13" cy="314.37" rx="18.04" ry="77.3"/>
      <ellipse class="cls-3" cx="1143.32" cy="307.96" rx="19.24" ry="10.24"/>
      <ellipse class="cls-3" cx="1158.62" cy="278.96" rx="8.07" ry="35.29"/>
      <ellipse class="cls-3" cx="1084.55" cy="337.78" rx="24.62" ry="12.23"/>
      <ellipse class="cls-3" cx="1067.71" cy="307.05" rx="13.05" ry="38.62"/>
    </g>
    <path class="cls-1" d="M1064.61,280.11l-1.19,7.37c.23-2.66.96-4.71,1.19-7.37Z"/>
    <path class="cls-1" d="M1074.95,301.05c-.43-3.47-.51-6.98-.25-10.47"/>
    <path class="cls-1" d="M1062.99,305.3v-12.27"/>
    <path class="cls-1" d="M1073.06,320.67c-.19-2.87-.02-5.76.49-8.59"/>
    <path class="cls-1" d="M1084.5,340.9c.63-2.6.83-5.31.57-7.98"/>
    <path class="cls-1" d="M1102.7,339.74l-1.66-4.37"/>
    <path class="cls-1" d="M1112.07,321.86c1.28-1.95,2.98-3.62,4.93-4.89"/>
    <path class="cls-1" d="M1108.33,309.68l-3.68-3.68"/>
    <path class="cls-1" d="M1108.75,296.48c1.15-1.33,2.49-2.48,3.98-3.41"/>
    <path class="cls-1" d="M1107.03,284.59l-3.39-3.36"/>
    <path class="cls-1" d="M1121.91,280.76v-4.91"/>
    <path class="cls-1" d="M1107.2,267.25l-.62-2.45"/>
    <path class="cls-1" d="M1111.26,256.75l1.9-5.5"/>
    <path class="cls-1" d="M1120.72,334.77c.79-2.06,1.57-4.12,2.36-6.17"/>
    <path class="cls-1" d="M1112.75,350.05c-1.98-1.61-3.16-4.15-3.13-6.7"/>
    <path class="cls-1" d="M1121.44,356.89l-1.31,5.5"/>
    <path class="cls-1" d="M1108.7,364.04c1.5,2.42,2.81,4.96,3.91,7.58"/>
    <path class="cls-1" d="M1137.14,307.87c-1-.98-1.57-2.39-1.51-3.79"/>
    <path class="cls-1" d="M1150.64,313.21l3.2-4.82"/>
    <path class="cls-1" d="M1158.12,295.48c-1.06-1.37-1.52-3.19-1.22-4.9"/>
    <path class="cls-1" d="M1159.34,277.73c1.61.07,3.23-.67,4.23-1.93"/>
    <path class="cls-1" d="M1157.49,264.81l-2.39-4.33"/>
    <path class="cls-3" d="M1158.73,251.91l.61-1.84"/>
    <path class="cls-1" d="M1064.22,321.87v4.3"/>
    <path class="cls-1" d="M1072.81,335.99c-.13,1.66.08,3.34.61,4.91"/>
  </g>
  <path class="cls-2" d="M898.42,410.85c3.38-1.82,7.21-1.5,10.82-.64,4.05.96,7.93,2.5,11.95,3.57,9.56,2.56,19.01.6,28.4-1.72,3.12-.77,1.8-5.6-1.33-4.82-4.71,1.17-9.46,2.37-14.31,2.74s-8.99-.25-13.43-1.58c-7.97-2.4-16.61-6.16-24.63-1.86-2.84,1.52-.31,5.84,2.52,4.32h0Z"/>
  <path class="cls-2" d="M948.44,546.99c4.19-6.82,13.62-7.17,20.62-5.69,9.57,2.03,18.67,6.47,28.68,5.11,4.78-.65,9.43-2.62,12.62-6.35.88-1.02,1.01-2.53,0-3.54-.9-.9-2.65-1.03-3.54,0-5.73,6.68-15.56,5.67-23.19,3.62-9.27-2.49-18.58-6.28-28.28-3.67-4.59,1.24-8.71,3.89-11.23,7.98-1.69,2.75,2.63,5.26,4.32,2.52h0Z"/>
  <path class="cls-2" d="M1075.12,462.01c12.36-16.24,34.08-6.1,50.23-3.88,5.3.73,10.61.83,15.84-.39,3.13-.73,1.81-5.55-1.33-4.82-9.1,2.12-18.45-.45-27.33-2.46s-18.86-4.03-27.96-.97c-5.56,1.87-10.23,5.36-13.77,10.01-.82,1.08-.17,2.8.9,3.42,1.28.75,2.6.18,3.42-.9h0Z"/>
  <path class="cls-2" d="M1197.62,361.31c9.74.05,19.49.1,29.23.14,3.22.02,3.22-4.98,0-5-9.74-.05-19.49-.1-29.23-.14-3.22-.02-3.22,4.98,0,5h0Z"/>
  <path class="cls-2" d="M922.01,356.05c8.16-1.88,16.71-1.97,24.9-.19,4.04.88,7.8,2.43,11.74,3.64s8.14,1.69,11.74-.57c2.72-1.7.21-6.03-2.52-4.32-3.09,1.93-6.96.44-10.08-.68-3.86-1.38-7.7-2.62-11.75-3.34-8.41-1.5-17.01-1.29-25.34.63-3.13.72-1.81,5.55,1.33,4.82h0Z"/>
  <path class="cls-2" d="M859.4,495.03c14.87-4.34,30.41-5.84,45.84-4.47,1.35.12,2.5-1.23,2.5-2.5,0-1.45-1.15-2.38-2.5-2.5-15.84-1.4-31.91.2-47.17,4.65-3.08.9-1.77,5.73,1.33,4.82h0Z"/>
  <path class="cls-2" d="M1111.03,552.98c2.91-1.82,6.4-.46,9.24.86,3.52,1.65,6.85,3.57,10.58,4.76,7.53,2.41,15.84,2.43,22.97-1.23,2.86-1.47.34-5.79-2.52-4.32-6.7,3.44-14.68,2.59-21.47-.12s-14.11-8.78-21.3-4.28c-2.72,1.7-.22,6.03,2.52,4.32h0Z"/>
  <path class="cls-2" d="M1192.38,502.23c18.15-2.3,36.31-4.59,54.46-6.89,1.34-.17,2.5-1.03,2.5-2.5,0-1.22-1.15-2.67-2.5-2.5-18.15,2.3-36.31,4.59-54.46,6.89-1.34.17-2.5,1.03-2.5,2.5,0,1.22,1.15,2.67,2.5,2.5h0Z"/>
  <path class="cls-2" d="M1019.94,422.44c11.71-10.61,28.69-14.81,44-10.96,3.12.79,4.45-4.04,1.33-4.82-13.21-3.33-27.53-1.29-39.39,5.38-3.41,1.92-6.58,4.24-9.48,6.86-2.39,2.17,1.15,5.69,3.54,3.54h0Z"/>
</svg>