<?xml version="1.0" encoding="UTF-8"?>
<svg id="Layer_2" data-name="Layer 2" xmlns="http://www.w3.org/2000/svg" viewBox="0 0 1277.2 229.42">
  <defs>
    <style>
      .cls-1 {
        fill: #f15e6a;
      }
    </style>
  </defs>
  <g id="Layer_1-2" data-name="Layer 1">
    <path class="cls-1" d="M4.31,45.72C37.72,14.37,84.93.99,130.09,6.05c22.36,2.5,44.3,9.66,63.52,21.42,22.3,13.66,39.18,33.74,55.3,53.98,15.93,20,31.71,40.04,51.88,56,17.16,13.58,36.34,24.38,56.71,32.33,42.06,16.42,89.1,20.4,133.24,10.71,50.6-11.11,90.41-42.38,129.81-74.31,42.19-34.18,91.4-71.64,148.82-68.5,53.65,2.93,94.15,44.29,126.67,82.93,31.25,37.14,62.35,78.65,108.39,98.2,46.36,19.68,99.27,10.18,142.2-13.67,45.93-25.51,80.03-67.44,108.68-110.55,7.4-11.14,14.51-22.48,21.51-33.88,1.69-2.75-2.63-5.26-4.32-2.52-28.62,46.59-59.83,93.66-104.13,126.89-40.96,30.72-96.04,48.89-146.74,34.53-100.2-28.37-128.45-159.16-231.03-183.82-52.58-12.64-104.19,13.78-145.18,44.49-42.68,31.98-81.56,71.33-133.06,88.98-43.71,14.97-92.02,14.96-136.15,1.7-22.37-6.72-43.69-16.89-62.82-30.31-20.97-14.7-37.66-33.5-53.53-53.41s-31.54-40.6-52.03-56.11c-17.08-12.92-37.03-21.88-57.86-26.71C108.04-5.32,61.99,1.03,25.12,23.56c-8.75,5.34-16.87,11.61-24.34,18.62-2.35,2.21,1.19,5.74,3.54,3.54h0Z"/>
  </g>
</svg>