<?xml version="1.0" encoding="UTF-8"?>
<svg id="Layer_2" data-name="Layer 2" xmlns="http://www.w3.org/2000/svg" viewBox="0 0 900.67 228.22">
  <defs>
    <style>
      .cls-1 {
        fill: none;
        stroke: #ed2290;
        stroke-miterlimit: 10;
      }
    </style>
  </defs>
  <g id="Layer_1-2" data-name="Layer 1">
    <path class="cls-1" d="M.39,87.5C36.83,42.48,89.67,11.06,146.63.54c29.82,27.04,60.4,55.1,77.43,91.58,16.95,36.31,19.2,78.48,38.5,113.6,2.5,4.55,5.59,9.24,10.42,11.16,4.22,1.68,8.96.94,13.44.17,38.14-6.55,76.27-13.1,114.41-19.65,20.96-3.6,42.22-7.29,61.41-16.46,20.94-10,38.32-26,55.35-41.76,25.07-23.2,50.14-46.4,75.21-69.6,7.59-7.02,16.27-14.49,26.61-14.35,6.79.09,13.05,3.53,18.7,7.29,28.4,18.92,48.49,47.64,72.21,72.18,48.74,50.41,114.82,83.75,184.33,93,3.31.44,7.65-4.11,4.34-4.54"/>
  </g>
</svg>